<?xml version="1.0" encoding="utf-8"?>
<!-- Generator: Adobe Illustrator 23.0.1, SVG Export Plug-In . SVG Version: 6.00 Build 0)  -->
<svg version="1.1" id="Layer_1" xmlns="http://www.w3.org/2000/svg" xmlns:xlink="http://www.w3.org/1999/xlink" x="0px" y="0px"
	 viewBox="0 0 360 360" enable-background="new 0 0 360 360" xml:space="preserve">
<path fill="#E8857B" d="M180.01944,67.51458c72.3539,0,131.233,46.28307,131.233,103.11164s-58.8791,103.11163-131.233,103.11163
	c-16.57988,0-32.98401-2.5192-48.74368-7.49902l-8.90509-2.81213l-7.6162,5.38992
	c-13.47482,9.54956-34.2729,20.68091-60.1094,23.20013c7.03034-8.84653,17.45867-23.66879,23.90314-40.77597l4.15962-10.95561
	l-8.02631-8.55359c-16.9314-17.92737-25.89508-39.07697-25.89508-61.10536
	C48.78645,113.79765,107.66554,67.51458,180.01944,67.51458 M180.01944,48.76701
	c-82.84082,0-149.98056,54.54371-149.98056,121.85921c0,27.88701,11.65865,53.43057,30.99208,73.99431
	c-8.72934,23.08296-26.89105,42.65071-27.18398,42.88506c-3.86668,4.10104-4.92124,10.07684-2.69496,15.23242
	s7.26468,8.495,12.88895,8.495c36.03048,0,64.44476-15.05667,81.49335-27.1254c16.98999,5.33136,35.26886,8.37781,54.48512,8.37781
	C262.86026,292.48541,330,237.94171,330,170.62622S262.86026,48.76701,180.01944,48.76701z"/>
</svg>
