<?xml version="1.0" encoding="utf-8"?>
<!-- Generator: Adobe Illustrator 23.0.1, SVG Export Plug-In . SVG Version: 6.00 Build 0)  -->
<svg version="1.1" id="Layer_1" xmlns="http://www.w3.org/2000/svg" xmlns:xlink="http://www.w3.org/1999/xlink" x="0px" y="0px"
	 viewBox="0 0 360 360" enable-background="new 0 0 360 360" xml:space="preserve">
<path fill="#6BD8D2" d="M297.98438,171.9375C299.29688,167.29688,300,162.46875,300,157.5c0-29.01562-23.48438-52.5-52.5-52.5
	c-7.82812,0-15.42188,1.6875-22.5,5.0625C210.1875,88.96875,185.48438,75,157.5,75c-44.25,0-80.48438,34.92188-82.40625,78.84375
	C48.375,163.21875,30,188.57812,30,217.5c0,37.3125,30.1875,67.5,67.5,67.5H270c33.14062,0,60-26.8125,60-60
	C330,202.96875,317.90625,182.4375,297.98438,171.9375z M270,270H97.5C68.48438,270,45,246.51562,45,217.5
	c0-26.625,19.78125-48.60938,45.46875-52.03125C90.14062,162.84375,90,160.17188,90,157.5c0-37.26562,30.23438-67.5,67.5-67.5
	c28.26562,0,52.45312,17.34375,62.53125,42c6.84375-7.35938,16.59375-12,27.46875-12c20.71875,0,37.5,16.78125,37.5,37.5
	c0,8.67188-2.95312,16.6875-7.92188,23.0625C298.59375,183.9375,315,202.54688,315,225C315,249.84375,294.84375,270,270,270z"/>
</svg>
