<?xml version="1.0" encoding="utf-8"?>
<!-- Generator: Adobe Illustrator 23.0.1, SVG Export Plug-In . SVG Version: 6.00 Build 0)  -->
<svg version="1.1" id="Layer_1" xmlns="http://www.w3.org/2000/svg" xmlns:xlink="http://www.w3.org/1999/xlink" x="0px" y="0px"
	 viewBox="0 0 360 360" enable-background="new 0 0 360 360" xml:space="preserve">
<path fill="#E8857B" d="M110.35714,30H62.14286C44.39085,30,30,44.39085,30,62.14286v235.71429
	C30,315.60916,44.39085,330,62.14286,330h48.21428c2.95867,0,5.35715-2.39847,5.35715-5.35715v-10.71429
	c0-2.95865-2.39848-5.35712-5.35715-5.35712H62.14286c-5.91734,0-10.71429-4.79697-10.71429-10.71429V62.14286
	c0-5.91734,4.79695-10.71429,10.71429-10.71429h48.21428c2.95867,0,5.35715-2.39847,5.35715-5.35714V35.35714
	C115.71429,32.39848,113.31581,30,110.35714,30z M297.85715,30h-48.21429c-2.95866,0-5.35713,2.39848-5.35713,5.35714v10.71429
	c0,2.95867,2.39847,5.35714,5.35713,5.35714h48.21429c5.91733,0,10.71429,4.79695,10.71429,10.71429v235.71429
	c0,5.91733-4.79697,10.71429-10.71429,10.71429h-48.21429c-2.95866,0-5.35713,2.39847-5.35713,5.35712v10.71429
	c0,2.95868,2.39847,5.35715,5.35713,5.35715h48.21429C315.60916,330,330,315.60916,330,297.85715V62.14286
	C330,44.39085,315.60916,30,297.85715,30z"/>
</svg>
