<?xml version="1.0" encoding="utf-8"?>
<!-- Generator: Adobe Illustrator 23.0.1, SVG Export Plug-In . SVG Version: 6.00 Build 0)  -->
<svg version="1.1" id="Layer_1" xmlns="http://www.w3.org/2000/svg" xmlns:xlink="http://www.w3.org/1999/xlink" x="0px" y="0px"
	 viewBox="0 0 360 360" enable-background="new 0 0 360 360" xml:space="preserve">
<path fill="#90A5F6" d="M287.14285,72.85714h-21.42856V62.14286C265.71429,44.39062,251.32367,30,233.57143,30H62.14286
	C44.39062,30,30,44.39062,30,62.14286v235.71429C30,315.60938,44.39062,330,62.14286,330h171.42857
	c17.75224,0,32.14287-14.39062,32.14287-32.14285v-14.80716l40.59442-20.29755C320.92166,255.44597,330,240.75735,330,224.4201
	V115.71429C330,92.08259,310.77457,72.85714,287.14285,72.85714z M244.28572,297.85715c0,5.90759-4.8067,10.71429-10.71429,10.71429
	H62.14286c-5.90759,0-10.71429-4.8067-10.71429-10.71429V62.14286c0-5.90759,4.8067-10.71429,10.71429-10.71429h171.42857
	c5.90759,0,10.71429,4.8067,10.71429,10.71429V297.85715z M308.57144,224.42007c0,8.16898-4.53885,15.51295-11.84534,19.16653
	l-31.01181,15.50626V94.28571h21.42856c11.81586,0,21.42859,9.61272,21.42859,21.42857V224.42007z M158.57143,105v150
	c0,5.91763-4.79732,10.71429-10.71428,10.71429S137.14285,260.91763,137.14285,255V105
	c0-5.91764,4.79733-10.71429,10.71429-10.71429S158.57143,99.08236,158.57143,105z M115.71429,105v150
	c0,5.91763-4.79733,10.71429-10.71429,10.71429S94.28571,260.91763,94.28571,255V105c0-5.91764,4.79733-10.71429,10.71429-10.71429
	S115.71429,99.08236,115.71429,105z M201.42857,105v150c0,5.91763-4.79665,10.71429-10.71429,10.71429
	C184.79665,265.71429,180,260.91763,180,255V105c0-5.91764,4.79665-10.71429,10.71428-10.71429
	C196.63193,94.28571,201.42857,99.08236,201.42857,105z"/>
</svg>
