<?xml version="1.0" encoding="utf-8"?>
<!-- Generator: Adobe Illustrator 23.0.1, SVG Export Plug-In . SVG Version: 6.00 Build 0)  -->
<svg version="1.1" id="Layer_1" xmlns="http://www.w3.org/2000/svg" xmlns:xlink="http://www.w3.org/1999/xlink" x="0px" y="0px"
	 viewBox="0 0 360 360" enable-background="new 0 0 360 360" xml:space="preserve">
<path fill="#81CEF1" d="M180.00005,30c-60.32227,0-103.19531,48.94922-103.125,103.26562
	c0.03516,25.94531,9.66797,49.61133,25.52344,67.69922c15.0293,17.13867,29.4668,45.05859,30.72656,54.03516l0.03516,44.05078
	c0,1.8457,0.55078,3.64453,1.57031,5.17969l14.36133,21.58594c1.74023,2.61328,4.66992,4.18359,7.80469,4.18359h46.20117
	c3.14062,0,6.07031-1.57031,7.8047-4.18359l14.36131-21.58594c1.01955-1.53516,1.56445-3.33984,1.57031-5.17969L226.87505,255
	c1.32422-9.21094,15.81444-37.02539,30.72655-54.03516c15.88477-18.12305,25.52344-41.8418,25.52344-67.83984
	C283.12503,76.17188,236.95317,30,180.00005,30z M208.08989,296.19727L198.07622,311.25h-36.1582l-10.01366-15.05273L151.8985,292.5
	h56.19141v3.69727H208.08989z M208.11333,273.75h-56.23242L151.83989,255h56.29686L208.11333,273.75z M243.50395,188.60156
	c-8.19727,9.35155-21.28711,28.18359-29.63672,47.64258h-67.72852c-8.35547-19.46484-21.43946-38.29103-29.63673-47.64258
	c-13.55273-15.45703-20.80077-35.05664-20.84765-55.47656c-0.10547-45.11133,35.37891-84.375,84.3457-84.375
	c46.52344,0,84.37498,37.85156,84.37498,84.375C264.37503,153.54492,256.96295,173.25,243.50395,188.60156z M180.00005,67.5
	c-36.18164,0-65.625,29.44336-65.625,65.625c0,5.17969,4.19531,9.375,9.375,9.375s9.375-4.19531,9.375-9.375
	c0-25.8457,21.02344-46.875,46.875-46.875c5.17969,0,9.375-4.19531,9.375-9.375S185.17973,67.5,180.00005,67.5z"/>
</svg>
