<?xml version="1.0" encoding="utf-8"?>
<!-- Generator: Adobe Illustrator 23.0.1, SVG Export Plug-In . SVG Version: 6.00 Build 0)  -->
<svg version="1.1" id="Layer_1" xmlns="http://www.w3.org/2000/svg" xmlns:xlink="http://www.w3.org/1999/xlink" x="0px" y="0px"
	 viewBox="0 0 360 360" enable-background="new 0 0 360 360" xml:space="preserve">
<g>
	<g>
		<path d="M59.7312,184.13106c-18.82383,0-30.2623-11.16838-30.2623-30.62262s11.43847-30.62261,30.2623-30.62261
			c13.05979,0,24.49805,5.31411,27.02007,18.01337l-18.01337,7.02505c-0.99072-7.74568-3.51253-9.27657-8.46611-9.27657
			c-6.21459,0-9.36701,4.59306-9.36701,14.86075c0,10.17767,2.88213,14.86118,9.18674,14.86118
			c5.76425,0,7.83592-2.43198,8.55635-8.1062l18.55375,4.77353C83.86915,178.99742,73.33137,184.13106,59.7312,184.13106z"/>
		<path d="M140.24895,167.82904v15.40134H92.33358v-59.44386h20.98553v44.04253H140.24895z"/>
		<path d="M202.2793,153.50844c0,19.45424-11.25819,30.62262-30.17227,30.62262c-18.82382,0-30.2623-11.16838-30.2623-30.62262
			s11.43848-30.62261,30.2623-30.62261C191.0211,122.88583,202.2793,134.05421,202.2793,153.50844z M163.28061,153.50844
			c0,10.35773,2.70206,14.86118,8.82642,14.86118c6.12457,0,8.73662-4.50345,8.73662-14.86118
			c0-10.35771-2.61205-14.86075-8.73662-14.86075C165.98267,138.64769,163.28061,143.15073,163.28061,153.50844z"/>
		<path d="M265.5043,157.65137c0,17.7433-9.54706,26.47969-28.73122,26.47969s-28.731-8.73639-28.731-26.47969v-33.86485h21.07535
			v35.48618c0,6.03433,2.70207,9.09692,7.65565,9.09692c5.04382,0,7.74568-3.06259,7.74568-9.09692v-35.48618h20.98553V157.65137z"
			/>
		<path d="M330.5311,153.50844c0,18.91408-9.54706,29.72194-28.19083,29.72194h-29.18158v-59.44386h29.18158
			C320.98404,123.78651,330.5311,134.59438,330.5311,153.50844z M309.09521,153.50844c0-10.17766-1.98141-14.77072-9.72711-14.77072
			h-5.22388v29.54146h5.22388C307.1138,168.27917,309.09521,163.68611,309.09521,153.50844z"/>
	</g>
	<g>
		<g>
			<path d="M77.47294,224.10623l-9.23106-18.86089v15.80591c0,0.53151,0,0.5979,0.43172,0.66428l1.89259,0.26553v2.12517h-7.57081
				v-2.12517l1.79301-0.23256c0.39852-0.06639,0.43172-0.16574,0.43172-0.66383v-17.96448c0-0.49809-0.0332-0.59744-0.43172-0.66383
				l-1.79301-0.23256v-2.15858h6.54143l9.0983,18.76154v-15.70656c0-0.49809-0.06638-0.59744-0.43149-0.66383l-1.76006-0.23256
				v-2.15858h7.53763v2.15858l-1.85941,0.26553c-0.43171,0.06638-0.4649,0.13277-0.4649,0.63086v20.98604H77.47294z"/>
			<path d="M104.03468,224.10623v-2.12517l2.29111-0.29895l-1.16215-4.51584h-7.27209l-1.16215,4.51584l2.25792,0.29895v2.12517
				h-7.37167v-2.12517l1.16216-0.36533c0.33214-0.09935,0.59789-0.23257,0.69747-0.63086l6.20928-20.91966h4.48288l6.17632,20.98604
				c0.09957,0.3983,0.33192,0.46513,0.66405,0.56448l1.26173,0.36533v2.12517H104.03468z M101.67696,203.78447h-0.16595
				l-2.8224,10.49303h5.71119L101.67696,203.78447z"/>
			<path d="M121.66432,224.10623v-2.12517l2.88901-0.23256c0.3983-0.03297,0.43172-0.16574,0.43172-0.66383v-18.16364h-3.38711
				c-0.29873,0-0.39853,0.03342-0.43172,0.36534l-0.4649,2.88878h-2.68964v-6.10994h17.69872v6.10994h-2.65645l-0.43172-2.88878
				c-0.06638-0.33192-0.13277-0.36534-0.4649-0.36534h-3.42007v18.16364c0,0.46468,0.03319,0.59744,0.46468,0.63086l3.12135,0.26553
				v2.12517H121.66432z"/>
			<path d="M144.43999,224.10623v-2.12517l2.05876-0.23256c0.39853-0.03297,0.4649-0.16574,0.4649-0.66383v-17.93106
				c0-0.49809-0.06638-0.63086-0.4649-0.66428l-2.05876-0.26553v-2.15858h8.89914v2.15858l-2.15834,0.26553
				c-0.43172,0.06638-0.4649,0.13277-0.4649,0.63086v17.93106c0,0.53151,0.03319,0.63086,0.4649,0.69725l2.15834,0.23256v2.12517
				H144.43999z"/>
			<path d="M169.0764,224.10623l-5.81099-20.95262c-0.09958-0.39876-0.33214-0.46513-0.66406-0.56448l-1.26195-0.36533
				l0.26576-2.15858h7.93614v2.15858l-2.32454,0.29895l4.58246,17.79784h0.16595l4.38332-17.79784l-2.19177-0.29895l0.26576-2.15858
				h6.87357v2.15858l-1.19534,0.36533c-0.33214,0.09935-0.59767,0.23212-0.69748,0.63086l-5.34608,20.88625H169.0764z"/>
			<path d="M189.66052,224.10623v-2.12517l1.79301-0.23256c0.39853-0.06639,0.43172-0.16574,0.43172-0.66383v-17.96448
				c0-0.49809-0.03319-0.59744-0.43172-0.66383l-1.79301-0.23256v-2.15858h14.71014v5.97717l-2.68965-0.13277l-0.39851-2.55687
				c-0.06639-0.33191-0.19916-0.43172-0.49811-0.43172h-5.14693v7.63721h6.90675v2.88878h-6.90675v7.83681h5.7778
				c0.29895,0,0.39851-0.03342,0.4649-0.36534l0.43172-2.9222h2.65645v6.10994H189.66052z"/>
			<path d="M227.112,224.10623v-2.12517l1.79301-0.23256c0.39853-0.06639,0.43172-0.16574,0.43172-0.66383v-17.96448
				c0-0.49809-0.03319-0.59744-0.43172-0.66383l-1.79301-0.23256v-2.15858h8.89915c7.47124,0,10.12769,4.48288,10.12769,11.6554
				c0,7.37167-2.92221,12.38562-10.59259,12.38562H227.112z M235.21411,221.21744c5.51225,0,7.03975-3.5201,7.03975-9.13148
				c0-6.87357-1.82645-9.1315-6.87358-9.1315h-2.29134v18.26299H235.21411z"/>
			<path d="M265.56149,224.10623v-2.12517l2.29111-0.29895l-1.16217-4.51584h-7.27206l-1.16217,4.51584l2.25793,0.29895v2.12517
				h-7.37167v-2.12517l1.16216-0.36533c0.33214-0.09935,0.5979-0.23257,0.69748-0.63086l6.20927-20.91966h4.48288l6.17633,20.98604
				c0.09958,0.3983,0.33191,0.46513,0.66406,0.56448l1.26172,0.36533v2.12517H265.56149z M263.20377,203.78447h-0.16595
				l-2.82242,10.49303h5.71118L263.20377,203.78447z"/>
			<path d="M282.95856,224.10623v-2.12517l2.75623-0.23256c0.39832-0.03297,0.46469-0.16574,0.46469-0.66383v-6.10994
				l-5.6116-11.82112c-0.13278-0.33237-0.33215-0.46513-0.66406-0.56448l-1.26196-0.36533l0.26578-2.15858h7.76996v2.15858
				l-2.19156,0.29895l3.75223,8.86595h0.16617l3.71902-8.86595l-2.12515-0.29895l0.29874-2.15858h6.70761v2.15858l-1.19534,0.36533
				c-0.29895,0.09935-0.53131,0.26553-0.69748,0.63086l-5.1799,11.78772v6.04355c0,0.53151,0.0332,0.5979,0.46469,0.66428
				l2.92218,0.26553v2.12517H282.95856z"/>
		</g>
	</g>
	<g>
		<g>
			<path d="M134.37761,95.7129c-0.5479,0.06928-0.82181,0.10445-1.36951,0.17579c-0.3965-3.04413-0.5947-4.56625-0.99109-7.61037
				c-0.10014-1.28503-0.14992-1.92756-0.24892-3.21269c-0.00728,0.00095-0.01094,0.00142-0.0182,0.00237
				c-1.04944,4.52977-1.55072,6.79628-2.50629,11.3307c-0.48955,0.06888-0.73425,0.10373-1.2236,0.17426
				c-2.18348-4.08738-3.29768-6.12387-5.57092-10.18077c-0.00748,0.00116-0.01123,0.00174-0.01871,0.0029
				c0.26386,1.26171,0.39551,1.89262,0.65825,3.15455c0.4689,3.03394,0.70336,4.55096,1.17238,7.58479
				c-0.5463,0.08447-0.8194,0.12721-1.36546,0.21375c-0.76392-4.82211-1.14574-7.23351-1.90944-12.05568
				c0.91288-0.14456,1.36948-0.21545,2.283-0.35447c1.52353,2.76852,2.27505,4.15639,3.75771,6.93876
				c0.53953,1.15511,0.80783,1.73312,1.34155,2.88996c0.01463-0.00208,0.02193-0.00312,0.03656-0.0052
				c0.19775-1.25346,0.29819-1.88019,0.50206-3.13356c0.63872-3.09195,0.96869-4.63755,1.64986-7.72749
				c0.91563-0.12139,1.37358-0.1807,2.28978-0.29655C133.45897,88.44738,133.76512,90.86927,134.37761,95.7129z"/>
			<path d="M150.83287,87.88197c0.30803,3.85254-1.63344,6.42886-5.02931,6.75165c-3.39642,0.32285-5.78998-1.8412-6.21339-5.68272
				c-0.42346-3.84206,1.51152-6.50257,5.02332-6.83647C148.12468,81.78057,150.5248,84.02888,150.83287,87.88197z
				 M141.13156,88.78419c0.32379,3.05293,2.0564,4.70467,4.54071,4.46851c2.4838-0.23611,3.87361-2.18478,3.61633-5.24406
				c-0.25726-3.05928-1.9946-4.75579-4.54388-4.5134C142.19487,83.73769,140.80779,85.73125,141.13156,88.78419z"/>
			<path d="M166.60384,93.0612c-0.71776,0.02762-1.07661,0.04229-1.79427,0.07339c-2.14209-3.18033-3.23502-4.76266-5.46436-7.9108
				c-0.57301-0.93081-0.86115-1.39567-1.44067-2.32428c-0.00754,0.00045-0.01131,0.00068-0.01883,0.00113
				c0.07716,0.78105,0.11566,1.17159,0.19254,1.95266c0.20705,3.4409,0.31058,5.16136,0.51762,8.60269
				c-0.55045,0.0331-0.82565,0.05016-1.37599,0.08532c-0.31137-4.87281-0.46707-7.30878-0.77841-12.18095
				c0.74045-0.0473,1.11075-0.07005,1.85136-0.11376c2.24968,3.12749,3.353,4.69954,5.51625,7.8592
				c0.56483,0.95191,0.84558,1.42841,1.40369,2.38247c0.00714-0.0003,0.01073-0.00044,0.01785-0.00075
				c-0.06192-0.78223-0.09296-1.17336-0.15517-1.95554c-0.14537-3.44429-0.21805-5.16626-0.36337-8.61031
				c0.56897-0.02402,0.85347-0.0355,1.4225-0.0574C166.32224,85.74281,166.41612,88.18192,166.60384,93.0612z"/>
			<path d="M181.67657,81.96867c-1.71693-0.00374-2.57542-0.00077-4.29231,0.01483
				c0.03928,4.32742,0.05893,6.49105,0.09827,10.81912c-0.58029,0.00527-0.87044,0.00848-1.4507,0.01601
				c-0.05629-4.32788-0.08441-6.49141-0.14062-10.81866c-1.71704,0.02232-2.57555,0.03832-4.29233,0.07999
				c-0.01344-0.55445-0.02016-0.83167-0.03362-1.38612c4.04512-0.09818,6.06833-0.12053,10.11435-0.11172
				C181.67839,81.13676,181.6778,81.41405,181.67657,81.96867z"/>
			<path d="M191.36903,87.86724c-1.16129-0.03255-1.74196-0.04659-2.9034-0.07017c-0.04112,2.02653-0.06166,3.03981-0.10277,5.06654
				c-0.5802-0.01177-0.87033-0.01709-1.45058-0.02659c0.07986-4.88229,0.11983-7.32291,0.19983-12.20448
				c1.87297,0.03069,2.80939,0.05177,4.68196,0.10538c2.50948,0.07185,4.12112,1.50967,4.03415,3.70849
				c-0.06871,1.73718-1.1488,2.91365-2.81865,3.30366c1.30037,2.13681,1.94095,3.20808,3.20288,5.35606
				c-0.68903-0.0286-1.03355-0.0421-1.72267-0.0675C193.25945,90.96481,192.6353,89.93047,191.36903,87.86724z M188.49377,86.41022
				c1.24693,0.02531,1.87035,0.04054,3.1171,0.07617c1.7334,0.04954,2.60788-0.63795,2.65964-2.09838
				c0.05173-1.45988-0.78148-2.21452-2.53497-2.26464c-1.26118-0.03605-1.89182-0.05147-3.1532-0.07707
				C188.54691,83.79185,188.52919,84.66462,188.49377,86.41022z"/>
			<path d="M210.44701,92.58001c-0.04416,0.5531-0.06624,0.82967-0.11038,1.38278c-3.45892-0.27622-5.1897-0.39403-8.6528-0.58904
				c0.27448-4.87506,0.4118-7.3121,0.68649-12.18648c3.46503,0.19521,5.19682,0.31248,8.65781,0.58634
				c-0.04375,0.55288-0.06563,0.82931-0.10938,1.38218c-2.8526-0.22572-4.27977-0.32517-7.13519-0.49726
				c-0.09482,1.57296-0.14223,2.35944-0.23703,3.93243c2.19878,0.13251,3.29781,0.2068,5.49492,0.37145
				c-0.04144,0.55307-0.06216,0.82959-0.10361,1.38266c-2.18904-0.16404-3.28404-0.23805-5.47472-0.37007
				c-0.0988,1.63934-0.14819,2.45903-0.24695,4.09848C206.10994,92.24784,207.55624,92.34915,210.44701,92.58001z
				 M207.22633,79.9532c-0.48822-0.03361-0.73233-0.05003-1.22063-0.08207c0.50015-1.06444,0.75175-1.59626,1.25793-2.6591
				c0.71078,0.04865,1.06612,0.07379,1.77673,0.12572C208.31023,78.38223,207.94743,78.90533,207.22633,79.9532z"/>
			<path d="M223.02411,91.78997c-2.17821-0.24738-3.26804-0.36306-5.44879-0.5784c-0.64359,1.29671-0.96309,1.94575-1.59752,3.24516
				c-0.60713-0.05785-0.91077-0.08614-1.51808-0.14147c2.30135-4.69302,3.48244-7.03083,5.90477-11.68764
				c0.70888,0.07361,1.06325,0.11124,1.77185,0.18816c1.38281,5.06087,2.04318,7.59438,3.30252,12.66517
				c-0.61317-0.07436-0.91983-0.1109-1.53323-0.1827C223.55769,93.89458,223.38138,93.19292,223.02411,91.78997z
				 M222.65106,90.35195c-0.45825-1.79343-0.69118-2.68986-1.16467-4.48203c-0.15645-0.70124-0.23518-1.05182-0.39371-1.75291
				c-0.01459-0.00155-0.02188-0.00232-0.03648-0.00388c-0.28523,0.63189-0.4274,0.94796-0.7108,1.58035
				c-0.84865,1.67393-1.26917,2.51205-2.10265,4.19051C220.0069,90.06073,220.8886,90.15432,222.65106,90.35195z"/>
			<path d="M239.01389,95.97813c-0.08678,0.54802-0.13016,0.82202-0.2169,1.37003c-3.29152-0.52132-4.93956-0.76337-8.23917-1.21024
				c0.65492-4.83811,0.98267-7.25733,1.63797-12.09533c0.59535,0.08061,0.89297,0.12151,1.48808,0.20447
				c-0.59766,4.2859-0.89656,6.42902-1.49397,10.71503C234.92226,95.34305,236.28716,95.54626,239.01389,95.97813z"/>
		</g>
	</g>
	<g>
		<path d="M110.80644,263.11838c0,2.73834-1.554,4.36551-4.14326,4.36551c-2.73779,0-4.06956-1.64584-3.58878-4.21698
			l1.36917-0.27722c-0.2778,2.08923,0.31409,3.10687,2.16405,3.10687c2.08978,0,2.71909-1.16507,2.71909-3.34784v-7.65723h1.47974
			V263.11838z"/>
		<path d="M126.89874,262.74872c0,3.14432-1.70198,4.73517-4.79073,4.73517c-3.07059,0-4.79073-1.59085-4.79073-4.73517v-7.65723
			h1.47974v7.28757c0,2.55243,1.03581,3.7175,3.31098,3.7175s3.31098-1.16507,3.31098-3.7175v-7.28757h1.47974V262.74872z"/>
		<path d="M143.11975,267.29907h-1.83124l-5.10483-8.17542l-1.29491-2.405h-0.01816l0.07372,1.96051v8.6199h-1.40602v-12.20758
			h1.83124l5.08667,8.13803l1.31361,2.44128h0.01816l-0.07372-1.96051v-8.6188h1.40547V267.29907z"/>
		<path d="M158.73128,265.91174v1.38733h-8.84103v-12.20758h8.56378v1.38733h-7.08405v3.93973h5.51189v1.38733h-5.51189v4.10587
			H158.73128z"/>
		<path d="M176.85779,255.09149v12.20758h-1.47974v-8.95215c0-0.40707,0.01871-0.90656,0.03687-1.42474
			c-0.851,0.81415-2.01608,1.44345-3.16301,1.7207l-0.38837-1.35104c0.86969-0.11002,3.01503-1.25748,3.69934-2.20035H176.85779z"/>
		<path d="M187.19781,255.09149v12.20758h-1.47974v-8.95215c0-0.40707,0.01814-0.90656,0.03685-1.42474
			c-0.85098,0.81415-2.01608,1.44345-3.16301,1.7207l-0.38837-1.35104c0.86914-0.11002,3.01505-1.25748,3.69936-2.20035H187.19781z"
			/>
		<path d="M195.70602,266.87329c0,1.2399-0.6106,2.45999-2.01662,3.12671l-0.77673-0.72171
			c0.99896-0.33337,1.64697-1.11008,1.8131-1.88681l-0.0737-0.03741c-0.09242,0.07483-0.22224,0.12982-0.51819,0.12982
			c-0.44447,0-1.01767-0.36966-1.01767-1.16507c0-0.66562,0.5369-1.2399,1.2025-1.2399
			C195.18785,265.07892,195.70602,265.81934,195.70602,266.87329z"/>
		<path d="M210.00394,266.09656c4.88368-3.58768,6.39973-5.19724,6.39973-7.36127c0-1.44345-0.99896-2.44131-2.58981-2.44131
			c-1.68217,0-2.73724,1.18381-2.90338,3.0145l-1.29491-0.77673c0.31465-2.12772,1.7757-3.62508,4.25439-3.62508
			c2.49739,0,4.08716,1.57216,4.08716,3.82863c0,2.29385-1.47864,4.30939-5.84415,7.21387v0.01871
			c0.40706-0.01871,1.46103-0.05612,1.83069-0.05612h4.2731v1.38733h-8.21283V266.09656z"/>
		<path d="M223.39529,261.19528c0-4.08826,1.59085-6.28862,4.55034-6.28862c2.95947,0,4.55032,2.20036,4.55032,6.28862
			c0,4.08716-1.59085,6.2886-4.55032,6.2886C224.98615,267.48389,223.39529,265.28244,223.39529,261.19528z M230.96011,261.19528
			c0-3.21912-1.05397-4.9574-3.01448-4.9574c-1.96053,0-3.01559,1.73828-3.01559,4.9574c0,3.21802,1.05507,4.9574,3.01559,4.9574
			C229.90614,266.15268,230.96011,264.4133,230.96011,261.19528z"/>
		<path d="M242.15112,255.09149v12.20758h-1.47974v-8.95215c0-0.40707,0.01869-0.90656,0.0374-1.42474
			c-0.85043,0.81415-2.01552,1.44345-3.16301,1.7207l-0.38837-1.35104c0.86914-0.11002,3.0145-1.25748,3.69991-2.20035H242.15112z"
			/>
		<path d="M257.02222,261.19528c0,4.08716-1.62717,6.2886-4.69775,6.2886c-2.25647,0-3.53267-0.96155-4.23569-2.75595
			l1.46103-0.7767c0.38837,1.27618,0.94395,2.14532,2.75595,2.14532c2.55241,0,3.36655-2.12662,3.36655-5.40076v-0.16614h-0.07372
			c-0.38837,1.7757-2.03423,2.29279-3.40395,2.29279c-2.46001,0-4.08716-1.53476-4.08716-3.95734
			c0-2.42371,1.62715-3.95845,4.19827-3.95845C255.37636,254.90666,257.02222,257.49539,257.02222,261.19528z M249.66093,258.88272
			c0,1.55453,0.98026,2.51608,2.66353,2.51608c1.59085,0,2.66353-1.03635,2.66353-2.51608
			c0-1.53476-1.07268-2.55243-2.66353-2.55243C250.64119,256.33029,249.66093,257.27426,249.66093,258.88272z"/>
	</g>
</g>
</svg>
