<?xml version="1.0" encoding="utf-8"?>
<!-- Generator: Adobe Illustrator 23.0.1, SVG Export Plug-In . SVG Version: 6.00 Build 0)  -->
<svg version="1.1" id="Layer_1" xmlns="http://www.w3.org/2000/svg" xmlns:xlink="http://www.w3.org/1999/xlink" x="0px" y="0px"
	 viewBox="0 0 360 360" style="enable-background:new 0 0 360 360;" xml:space="preserve">
<g>
	<g>
		<g>
			<path d="M134.4,82c-0.5,0.1-0.8,0.1-1.4,0.2c-0.4-3-0.6-4.6-1-7.6c-0.1-1.3-0.1-1.9-0.2-3.2c0,0,0,0,0,0c-1,4.5-1.6,6.8-2.5,11.3
				c-0.5,0.1-0.7,0.1-1.2,0.2c-2.2-4.1-3.3-6.1-5.6-10.2c0,0,0,0,0,0c0.3,1.3,0.4,1.9,0.7,3.2c0.5,3,0.7,4.6,1.2,7.6
				c-0.5,0.1-0.8,0.1-1.4,0.2c-0.8-4.8-1.1-7.2-1.9-12.1c0.9-0.1,1.4-0.2,2.3-0.4c1.5,2.8,2.3,4.2,3.8,6.9c0.5,1.2,0.8,1.7,1.3,2.9
				c0,0,0,0,0,0c0.2-1.3,0.3-1.9,0.5-3.1c0.6-3.1,1-4.6,1.6-7.7c0.9-0.1,1.4-0.2,2.3-0.3C133.5,74.8,133.8,77.2,134.4,82z"/>
			<path d="M150.8,74.2c0.3,3.9-1.6,6.4-5,6.8c-3.4,0.3-5.8-1.8-6.2-5.7c-0.4-3.8,1.5-6.5,5-6.8C148.1,68.1,150.5,70.3,150.8,74.2z
				 M141.1,75.1c0.3,3.1,2.1,4.7,4.5,4.5c2.5-0.2,3.9-2.2,3.6-5.2c-0.3-3.1-2-4.8-4.5-4.5C142.2,70,140.8,72,141.1,75.1z"/>
			<path d="M166.6,79.4c-0.7,0-1.1,0-1.8,0.1c-2.1-3.2-3.2-4.8-5.5-7.9c-0.6-0.9-0.9-1.4-1.4-2.3c0,0,0,0,0,0c0.1,0.8,0.1,1.2,0.2,2
				c0.2,3.4,0.3,5.2,0.5,8.6c-0.6,0-0.8,0.1-1.4,0.1c-0.3-4.9-0.5-7.3-0.8-12.2c0.7,0,1.1-0.1,1.9-0.1c2.2,3.1,3.4,4.7,5.5,7.9
				c0.6,1,0.8,1.4,1.4,2.4c0,0,0,0,0,0c-0.1-0.8-0.1-1.2-0.2-2c-0.1-3.4-0.2-5.2-0.4-8.6c0.6,0,0.9,0,1.4-0.1
				C166.3,72.1,166.4,74.5,166.6,79.4z"/>
			<path d="M181.7,68.3c-1.7,0-2.6,0-4.3,0c0,4.3,0.1,6.5,0.1,10.8c-0.6,0-0.9,0-1.5,0c-0.1-4.3-0.1-6.5-0.1-10.8
				c-1.7,0-2.6,0-4.3,0.1c0-0.6,0-0.8,0-1.4c4-0.1,6.1-0.1,10.1-0.1C181.7,67.4,181.7,67.7,181.7,68.3z"/>
			<path d="M191.4,74.2c-1.2,0-1.7,0-2.9-0.1c0,2-0.1,3-0.1,5.1c-0.6,0-0.9,0-1.5,0c0.1-4.9,0.1-7.3,0.2-12.2c1.9,0,2.8,0.1,4.7,0.1
				c2.5,0.1,4.1,1.5,4,3.7c-0.1,1.7-1.1,2.9-2.8,3.3c1.3,2.1,1.9,3.2,3.2,5.4c-0.7,0-1,0-1.7-0.1C193.3,77.3,192.6,76.2,191.4,74.2z
				 M188.5,72.7c1.2,0,1.9,0,3.1,0.1c1.7,0,2.6-0.6,2.7-2.1c0.1-1.5-0.8-2.2-2.5-2.3c-1.3,0-1.9-0.1-3.2-0.1
				C188.5,70.1,188.5,71,188.5,72.7z"/>
			<path d="M210.4,78.9c0,0.6-0.1,0.8-0.1,1.4c-3.5-0.3-5.2-0.4-8.7-0.6c0.3-4.9,0.4-7.3,0.7-12.2c3.5,0.2,5.2,0.3,8.7,0.6
				c0,0.6-0.1,0.8-0.1,1.4c-2.9-0.2-4.3-0.3-7.1-0.5c-0.1,1.6-0.1,2.4-0.2,3.9c2.2,0.1,3.3,0.2,5.5,0.4c0,0.6-0.1,0.8-0.1,1.4
				c-2.2-0.2-3.3-0.2-5.5-0.4c-0.1,1.6-0.1,2.5-0.2,4.1C206.1,78.6,207.6,78.7,210.4,78.9z M207.2,66.3c-0.5,0-0.7-0.1-1.2-0.1
				c0.5-1.1,0.8-1.6,1.3-2.7c0.7,0,1.1,0.1,1.8,0.1C208.3,64.7,207.9,65.2,207.2,66.3z"/>
			<path d="M223,78.1c-2.2-0.2-3.3-0.4-5.4-0.6c-0.6,1.3-1,1.9-1.6,3.2c-0.6-0.1-0.9-0.1-1.5-0.1c2.3-4.7,3.5-7,5.9-11.7
				c0.7,0.1,1.1,0.1,1.8,0.2c1.4,5.1,2,7.6,3.3,12.7c-0.6-0.1-0.9-0.1-1.5-0.2C223.6,80.2,223.4,79.5,223,78.1z M222.7,76.7
				c-0.5-1.8-0.7-2.7-1.2-4.5c-0.2-0.7-0.2-1.1-0.4-1.8c0,0,0,0,0,0c-0.3,0.6-0.4,0.9-0.7,1.6c-0.8,1.7-1.3,2.5-2.1,4.2
				C220,76.4,220.9,76.5,222.7,76.7z"/>
			<path d="M239,82.3c-0.1,0.5-0.1,0.8-0.2,1.4c-3.3-0.5-4.9-0.8-8.2-1.2c0.7-4.8,1-7.3,1.6-12.1c0.6,0.1,0.9,0.1,1.5,0.2
				c-0.6,4.3-0.9,6.4-1.5,10.7C234.9,81.7,236.3,81.9,239,82.3z"/>
		</g>
	</g>
	<g>
		<g>
			<path d="M59.7,211.5c-18.8,0-30.3-11.2-30.3-30.6s11.4-30.6,30.3-30.6c13.1,0,24.5,5.3,27,18l-18,7c-1-7.7-3.5-9.3-8.5-9.3
				c-6.2,0-9.4,4.6-9.4,14.9c0,10.2,2.9,14.9,9.2,14.9c5.8,0,7.8-2.4,8.6-8.1l18.6,4.8C83.9,206.4,73.3,211.5,59.7,211.5z"/>
			<path d="M140.2,195.2v15.4H92.3v-59.4h21v44H140.2z"/>
			<path d="M202.3,180.9c0,19.5-11.3,30.6-30.2,30.6c-18.8,0-30.3-11.2-30.3-30.6s11.4-30.6,30.3-30.6
				C191,150.3,202.3,161.5,202.3,180.9z M163.3,180.9c0,10.4,2.7,14.9,8.8,14.9c6.1,0,8.7-4.5,8.7-14.9c0-10.4-2.6-14.9-8.7-14.9
				C166,166,163.3,170.5,163.3,180.9z"/>
			<path d="M265.5,185c0,17.7-9.5,26.5-28.7,26.5S208,202.8,208,185v-33.9h21.1v35.5c0,6,2.7,9.1,7.7,9.1c5,0,7.7-3.1,7.7-9.1v-35.5
				h21V185z"/>
			<path d="M330.5,180.9c0,18.9-9.5,29.7-28.2,29.7h-29.2v-59.4h29.2C321,151.2,330.5,162,330.5,180.9z M309.1,180.9
				c0-10.2-2-14.8-9.7-14.8h-5.2v29.5h5.2C307.1,195.7,309.1,191.1,309.1,180.9z"/>
		</g>
		<g>
			<path d="M124,250.4l-9.1-18.7v15.7c0,0.5,0,0.6,0.4,0.7l1.9,0.3v2.1h-7.5v-2.1l1.8-0.2c0.4-0.1,0.4-0.2,0.4-0.7v-17.8
				c0-0.5,0-0.6-0.4-0.7l-1.8-0.2v-2.1h6.5l9,18.6v-15.6c0-0.5-0.1-0.6-0.4-0.7l-1.7-0.2v-2.1h7.5v2.1l-1.8,0.3
				c-0.4,0.1-0.5,0.1-0.5,0.6v20.8H124z"/>
			<path d="M150.3,250.4v-2.1l2.3-0.3l-1.2-4.5h-7.2l-1.2,4.5l2.2,0.3v2.1H138v-2.1l1.2-0.4c0.3-0.1,0.6-0.2,0.7-0.6l6.1-20.7h4.4
				l6.1,20.8c0.1,0.4,0.3,0.5,0.7,0.6l1.2,0.4v2.1H150.3z M148,230.3h-0.2l-2.8,10.4h5.7L148,230.3z"/>
			<path d="M167.8,250.4v-2.1l2.9-0.2c0.4,0,0.4-0.2,0.4-0.7v-18h-3.4c-0.3,0-0.4,0-0.4,0.4l-0.5,2.9h-2.7v-6h17.5v6h-2.6l-0.4-2.9
				c-0.1-0.3-0.1-0.4-0.5-0.4h-3.4v18c0,0.5,0,0.6,0.5,0.6l3.1,0.3v2.1H167.8z"/>
			<path d="M190.4,250.4v-2.1l2-0.2c0.4,0,0.5-0.2,0.5-0.7v-17.8c0-0.5-0.1-0.6-0.5-0.7l-2-0.3v-2.1h8.8v2.1L197,229
				c-0.4,0.1-0.5,0.1-0.5,0.6v17.8c0,0.5,0,0.6,0.5,0.7l2.1,0.2v2.1H190.4z"/>
			<path d="M214.8,250.4l-5.8-20.7c-0.1-0.4-0.3-0.5-0.7-0.6l-1.2-0.4l0.3-2.1h7.9v2.1l-2.3,0.3l4.5,17.6h0.2L222,229l-2.2-0.3
				l0.3-2.1h6.8v2.1l-1.2,0.4c-0.3,0.1-0.6,0.2-0.7,0.6l-5.3,20.7H214.8z"/>
			<path d="M235.2,250.4v-2.1l1.8-0.2c0.4-0.1,0.4-0.2,0.4-0.7v-17.8c0-0.5,0-0.6-0.4-0.7l-1.8-0.2v-2.1h14.6v5.9l-2.7-0.1l-0.4-2.5
				c-0.1-0.3-0.2-0.4-0.5-0.4h-5.1v7.6h6.8v2.9h-6.8v7.8h5.7c0.3,0,0.4,0,0.5-0.4l0.4-2.9h2.6v6.1H235.2z"/>
		</g>
		<g>
			<path d="M99.2,114.8c0-0.4-0.1-0.6-0.5-0.6l-2.4-0.3v-2.1h8.9v2.1l-1.8,0.3c-0.4,0.1-0.5,0.1-0.5,0.6v15.8c0,3.7-1.3,5.4-5,5.4
				c-2.2,0-4.4-0.7-5.1-1.2v-5.1l2.7,0.2l0.3,2.4c0,0.2,0.1,0.4,0.3,0.5c0.2,0.1,0.7,0.2,1.4,0.2c1.3,0,1.7-0.8,1.7-2.4V114.8z"/>
			<path d="M113.7,123.7c0-7.1,3-12.4,9.9-12.4c6.9,0,9.4,5.3,9.4,11.9c0,7.7-2.9,12.7-9.8,12.7C116.2,136,113.7,130.9,113.7,123.7z
				 M129.2,123.6c0-6.1-1.8-9.1-5.6-9.1c-3.9,0-6,3.1-6,9.2c0,6.2,1.9,9.2,5.8,9.2C127.2,132.9,129.2,130.1,129.2,123.6z"/>
			<path d="M156.1,114.8c0-0.5-0.1-0.6-0.5-0.7l-1.8-0.2v-2.1h7.8v2.1l-1.9,0.3c-0.4,0.1-0.5,0.1-0.5,0.6v12.6
				c0,5.9-2.6,8.6-7.8,8.6c-5.8,0-7.7-2.9-7.7-8.7v-12.5c0-0.5,0-0.6-0.4-0.7l-1.8-0.2v-2.1h8.3v2.1l-1.9,0.3
				c-0.4,0.1-0.5,0.1-0.5,0.6v12.4c0,3.9,0.9,5.7,4.1,5.7c3.2,0,4.3-1.5,4.3-5.7V114.8z"/>
			<path d="M181.6,135.6v-2.1l1.2-0.2l-2.2-6.3c-0.4-1.1-0.7-1.4-1.6-1.4h-2.2v7c0,0.5,0,0.6,0.5,0.7l1.6,0.3v2.1h-8v-2.1l1.8-0.2
				c0.4-0.1,0.4-0.2,0.4-0.7v-17.8c0-0.5,0-0.6-0.4-0.7l-1.8-0.2v-2.1h9.2c5,0,6.5,3.1,6.5,6.4c0,3.6-1.7,5.3-3.9,6.2
				c1,0.4,1.4,1.4,1.9,2.8l1.9,5.3c0.1,0.4,0.3,0.6,0.8,0.7l1.6,0.4v2.1H181.6z M178.7,122.8c2.2,0,4-0.8,4-4.3
				c0-3.1-1.4-3.8-3.9-3.8h-2v8.2H178.7z"/>
			<path d="M211.7,135.6l-9.1-18.7v15.7c0,0.5,0,0.6,0.4,0.7l1.9,0.3v2.1h-7.5v-2.1l1.8-0.2c0.4-0.1,0.4-0.2,0.4-0.7v-17.8
				c0-0.5,0-0.6-0.4-0.7l-1.8-0.2v-2.1h6.5l9,18.6v-15.6c0-0.5-0.1-0.6-0.4-0.7l-1.7-0.2v-2.1h7.5v2.1l-1.8,0.3
				c-0.4,0.1-0.5,0.1-0.5,0.6v20.8H211.7z"/>
			<path d="M227.4,135.6v-2.1l1.8-0.2c0.4-0.1,0.4-0.2,0.4-0.7v-17.8c0-0.5,0-0.6-0.4-0.7l-1.8-0.2v-2.1H242v5.9l-2.7-0.1l-0.4-2.5
				c-0.1-0.3-0.2-0.4-0.5-0.4h-5.1v7.6h6.8v2.9h-6.8v7.8h5.7c0.3,0,0.4,0,0.5-0.4l0.4-2.9h2.6v6.1H227.4z M233.2,110.4l-1.1-1.7
				l5.6-4.1l1.5,2.6L233.2,110.4z"/>
			<path d="M252.1,135.6v-2.1l1.8-0.2c0.4-0.1,0.4-0.2,0.4-0.7v-17.8c0-0.5,0-0.6-0.4-0.7l-1.8-0.2v-2.1h14.6v5.9l-2.7-0.1l-0.4-2.5
				c-0.1-0.3-0.2-0.4-0.5-0.4H258v7.6h6.8v2.9H258v7.8h5.7c0.3,0,0.4,0,0.5-0.4l0.4-2.9h2.6v6.1H252.1z"/>
		</g>
	</g>
	<g>
		<path d="M113.2,282v11.8h-1.4v-8.7c0-0.4,0-0.9,0-1.4c-0.8,0.8-2,1.4-3.1,1.7l-0.4-1.3c0.8-0.1,2.9-1.2,3.6-2.1H113.2z"/>
		<path d="M123.3,282v11.8h-1.4v-8.7c0-0.4,0-0.9,0-1.4c-0.8,0.8-2,1.4-3.1,1.7l-0.4-1.3c0.8-0.1,2.9-1.2,3.6-2.1H123.3z"/>
		<path d="M144.5,289.8c0,2.7-1.5,4.2-4,4.2c-2.7,0-3.9-1.6-3.5-4.1l1.3-0.3c-0.3,2,0.3,3,2.1,3c2,0,2.6-1.1,2.6-3.2V282h1.4V289.8z
			"/>
		<path d="M160.1,289.5c0,3-1.6,4.6-4.6,4.6c-3,0-4.6-1.5-4.6-4.6V282h1.4v7.1c0,2.5,1,3.6,3.2,3.6c2.2,0,3.2-1.1,3.2-3.6V282h1.4
			V289.5z"/>
		<path d="M168,293.9h-1.4V282h1.4V293.9z"/>
		<path d="M183.8,293.9H182l-4.9-7.9l-1.3-2.3h0l0.1,1.9v8.4h-1.4V282h1.8l4.9,7.9l1.3,2.4h0l-0.1-1.9V282h1.4V293.9z"/>
		<path d="M192.2,293.5c0,1.2-0.6,2.4-2,3l-0.8-0.7c1-0.3,1.6-1.1,1.8-1.8l-0.1,0c-0.1,0.1-0.2,0.1-0.5,0.1c-0.4,0-1-0.4-1-1.1
			c0-0.6,0.5-1.2,1.2-1.2C191.7,291.7,192.2,292.4,192.2,293.5z"/>
		<path d="M206,292.7c4.7-3.5,6.2-5,6.2-7.1c0-1.4-1-2.4-2.5-2.4c-1.6,0-2.7,1.1-2.8,2.9l-1.3-0.8c0.3-2.1,1.7-3.5,4.1-3.5
			c2.4,0,4,1.5,4,3.7c0,2.2-1.4,4.2-5.7,7v0c0.4,0,1.4-0.1,1.8-0.1h4.1v1.3h-8V292.7z"/>
		<path d="M219,287.9c0-4,1.5-6.1,4.4-6.1c2.9,0,4.4,2.1,4.4,6.1c0,4-1.5,6.1-4.4,6.1C220.6,294,219,291.9,219,287.9z M226.3,287.9
			c0-3.1-1-4.8-2.9-4.8s-2.9,1.7-2.9,4.8c0,3.1,1,4.8,2.9,4.8S226.3,291.1,226.3,287.9z"/>
		<path d="M237.2,282v11.8h-1.4v-8.7c0-0.4,0-0.9,0-1.4c-0.8,0.8-2,1.4-3.1,1.7l-0.4-1.3c0.8-0.1,2.9-1.2,3.6-2.1H237.2z"/>
		<path d="M251.6,287.9c0,4-1.6,6.1-4.6,6.1c-2.2,0-3.4-0.9-4.1-2.7l1.4-0.8c0.4,1.2,0.9,2.1,2.7,2.1c2.5,0,3.3-2.1,3.3-5.2v-0.2
			h-0.1c-0.4,1.7-2,2.2-3.3,2.2c-2.4,0-4-1.5-4-3.8s1.6-3.8,4.1-3.8C250,281.8,251.6,284.4,251.6,287.9z M244.5,285.7
			c0,1.5,1,2.4,2.6,2.4c1.5,0,2.6-1,2.6-2.4c0-1.5-1-2.5-2.6-2.5C245.4,283.2,244.5,284.1,244.5,285.7z"/>
	</g>
</g>
</svg>
