<?xml version="1.0" encoding="utf-8"?>
<!-- Generator: Adobe Illustrator 23.0.1, SVG Export Plug-In . SVG Version: 6.00 Build 0)  -->
<svg version="1.1" id="Layer_1" xmlns="http://www.w3.org/2000/svg" xmlns:xlink="http://www.w3.org/1999/xlink" x="0px" y="0px"
	 viewBox="0 0 360 360" enable-background="new 0 0 360 360" xml:space="preserve">
<path fill="#EBDF6F" d="M123.08508,30.08906c-0.63866-0.05859-1.27734-0.08789-1.91014-0.08789
	c-8.77251-0.09608-16.50007,5.75199-18.79095,14.22065L30.31981,318.06451c-1.33659,5.08249,1.70007,10.28619,6.78258,11.6228
	c0.76983,0.20242,1.56202,0.3075,2.35801,0.31268c0.87154-0.00266,1.73872-0.12289,2.57812-0.35742l273.98331-75.97235
	c9.21091-2.54883,14.93552-11.52536,13.83978-21.02921C317.62729,126.72736,229.67256,40.14956,123.08508,30.08906z
	 M52.5502,307.27158l55.37674-210.52652c86.89419,8.20309,145.53461,65.99389,154.95056,152.19669L52.5502,307.27158z
	 M281.15869,243.86752c-11.29099-92.94691-74.71846-155.38416-168.39194-165.42709l7.75779-29.4784
	c0.18073-0.15291,0.41432-0.22866,0.65039-0.21094h0.14648c97.07188,9.15817,178.71024,89.13833,189.69064,186.84891
	L281.15869,243.86752z M142.49712,133.12576c-15.53295,0-28.12489,12.59193-28.12489,28.12489s12.59194,28.12489,28.12489,28.12489
	s28.12489-12.59193,28.12489-28.12489C170.60585,145.7244,158.02336,133.14191,142.49712,133.12576z M142.49712,170.62563
	c-5.17766,0-9.37497-4.19731-9.37497-9.37497s4.19731-9.37497,9.37497-9.37497s9.37495,4.19731,9.37495,9.37497
	S147.67477,170.62563,142.49712,170.62563z M114.37222,217.50044c-15.53294,0-28.12489,12.59193-28.12489,28.12488
	c0,15.53297,12.59195,28.12489,28.12489,28.12489s28.12489-12.59192,28.12489-28.12489
	C142.48097,230.09908,129.89848,217.51659,114.37222,217.50044z M114.37222,255.00029c-5.17765,0-9.37496-4.19731-9.37496-9.37497
	c0-5.17764,4.19731-9.37495,9.37496-9.37495s9.37496,4.19731,9.37496,9.37495
	C123.74718,250.80298,119.54987,255.00029,114.37222,255.00029z M170.62201,217.50044
	c0,15.53294,12.59193,28.12488,28.12489,28.12488s28.12488-12.59193,28.12488-28.12488s-12.59193-28.12489-28.12488-28.12489
	C183.22064,189.39169,170.63815,201.9742,170.62201,217.50044z M208.12186,217.50044c0,5.17764-4.19731,9.37495-9.37495,9.37495
	c-5.17766,0-9.37497-4.19731-9.37497-9.37495s4.19731-9.37497,9.37497-9.37497
	C203.92455,208.12547,208.12186,212.3228,208.12186,217.50044z"/>
</svg>
