<?xml version="1.0" encoding="utf-8"?>
<!-- Generator: Adobe Illustrator 23.0.1, SVG Export Plug-In . SVG Version: 6.00 Build 0)  -->
<svg version="1.1" id="Layer_1" xmlns="http://www.w3.org/2000/svg" xmlns:xlink="http://www.w3.org/1999/xlink" x="0px" y="0px"
	 viewBox="0 0 360 360" enable-background="new 0 0 360 360" xml:space="preserve">
<path fill="#90A5F6" d="M201.09375,292.5h-42.1875c-3.86719,0-7.03125-3.16406-7.03125-7.03125v-4.6875
	c0-3.86719,3.16406-7.03125,7.03125-7.03125h42.1875c3.86719,0,7.03125,3.16406,7.03125,7.03125v4.6875
	C208.125,289.33594,204.96094,292.5,201.09375,292.5z M273.75,58.125v243.75c0,15.52734-12.59766,28.125-28.125,28.125h-131.25
	c-15.52734,0-28.125-12.59766-28.125-28.125V58.125C86.25,42.59766,98.84766,30,114.375,30h131.25
	C261.15234,30,273.75,42.59766,273.75,58.125z M255,58.125c0-5.15625-4.21875-9.375-9.375-9.375h-131.25
	c-5.15625,0-9.375,4.21875-9.375,9.375v243.75c0,5.15625,4.21875,9.375,9.375,9.375h131.25c5.15625,0,9.375-4.21875,9.375-9.375
	V58.125z"/>
</svg>
